<svg id="nyvo-border-noradius" xmlns="http://www.w3.org/2000/svg" xmlns:xlink="http://www.w3.org/1999/xlink" viewBox="0 0 1024 1024" shape-rendering="geometricPrecision" text-rendering="geometricPrecision" project-id="df952f4945b641d2b7709734579a970e" export-id="0badcee391904a48808c415ab793bb07" cached="false"><defs><linearGradient id="nyvo-border-noradius-u-n-stylized-fill" x1="0.044683" y1="0.009194" x2="0.707464" y2="0.880046" spreadMethod="pad" gradientUnits="objectBoundingBox" gradientTransform="translate(0 0)"><stop id="nyvo-border-noradius-u-n-stylized-fill-0" offset="0%" stop-color="#22c55e"/><stop id="nyvo-border-noradius-u-n-stylized-fill-1" offset="47%" stop-color="#2dd4bf"/><stop id="nyvo-border-noradius-u-n-stylized-fill-2" offset="100%" stop-color="#4338ca"/></linearGradient></defs><rect id="nyvo-border-noradius-u-border" width="1023.999878" height="1024" rx="0" ry="0" transform="translate(0 0.000001)" fill="#27272a" stroke-width="0"/><path id="nyvo-border-noradius-u-n-stylized" d="M28.740475,640.073703c-9.397271-3.11495-16.618332-9.247509-21.069671-18.105648C5,616.516892,5,616.516892,5,323.030175s0-293.486718,3.165397-300.008645C12.023224,14.844786,18.947529,7.93349,26.762102,4.137144c5.935119-2.822924,5.935119-2.822924,53.416068-3.11495c53.218231-.389369,55.592278-.194684,64.692794,5.645847c6.231875,3.99103,8.309166,6.2299,138.585022,155.163459c15.431309,17.716279,36.797736,42.051828,47.283112,54.12226c36.50098,41.662459,119.493723,136.863126,150.949852,173.269107c17.310763,20.052492,31.851804,36.503323,32.14856,36.503323.296756-.097342,19.783729-19.07907,43.227448-42.343855c42.633936-42.343855,42.633936-42.343855,23.938312-59.86545-24.729661-23.0701-57.471733-56.7505-62.120909-63.953822-2.077292-3.11495-4.253502-7.884718-4.847014-10.610299-1.48378-6.911296-1.48378-144.942528,0-150.296349c1.48378-5.256479,8.210248-11.778406,13.15618-12.654485c9.100515-1.75216,2.472966-7.690033,123.747225,112.138208c61.527397,60.838872,113.064011,112.235551,114.64671,114.377079c6.132956,8.274087,9.001597,21.804652,6.528631,32.025582-.692431,2.920266-2.571885,8.079402-4.253502,11.583721-2.868641,5.840532-12.166993,15.282725-131.660716,133.06678-88.631106,87.121264-129.979099,127.323591-132.84774,128.686382-7.221061,3.504319-15.035634,2.433555-21.861021-3.212292-1.681617-1.460133-19.783729-21.609967-39.963133-44.680067-65.286306-74.466779-158.170913-179.888376-242.152843-274.699674-24.235068-27.353157-45.700414-51.591363-47.678787-54.024918-3.758909-4.283057-3.758909-4.283057-3.758909,140.756814c0,161.296017.494593,148.738874-6.726468,162.464123-3.165397,5.937874-9.100515,12.265117-45.106902,48.476413-36.105305,36.211296-42.238261,41.954486-47.48095,44.485383-7.122142,3.504319-14.343204,4.380399-19.882648,2.628239Z" transform="translate(151 191.059494)" fill="url(#nyvo-border-noradius-u-n-stylized-fill)"/></svg>
